<svg width="580" height="400" xmlns="http://www.w3.org/2000/svg">
 <!-- Created with Method Draw - http://github.com/duopixel/Method-Draw/ -->

 <g>
  <title>background</title>
  <rect fill="#fff" id="canvas_background" height="402" width="582" y="-1" x="-1"/>
  <g display="none" overflow="visible" y="0" x="0" height="100%" width="100%" id="canvasGrid">
   <rect fill="url(#gridpattern)" stroke-width="0" y="0" x="0" height="100%" width="100%"/>
  </g>
 </g>
 <g>
  <title>Layer 1</title>
  <g stroke="null" id="svg_17">
   <g stroke="null" transform="matrix(0.8532075846080897,0,0,0.8532075846080897,-5020.825836068581,-3391.1265286132707) " id="svg_5">
    <path stroke="null" id="svg_6" d="m6197.390995,4232.800674c-1.278,0.909 -2.18,1.265 -2.643,1.925c-6.438,9.18 -20.197,8.358 -25.059,-1.917c-1.97,-4.166 -3.031,-9.097 -3.156,-13.718c-0.18,-6.654 0.067,-13.533 1.594,-19.969c2.218,-9.364 10.359,-13.631 19.638,-11.004c2.454,0.695 4.462,2.981 6.653,4.571c0.861,0.626 1.658,1.344 2.762,2.245c0,-7.048 -0.018,-13.285 0.006,-19.523c0.014,-3.786 1.283,-5.264 4.398,-5.246c3.375,0.016 4.68,1.476 4.682,5.396c0.014,19.512 0.008,39.025 0.008,58.54c-0.002,5.321 -1.02,6.704 -4.809,6.558c-3.58,-0.139 -4.399,-1.471 -4.074,-7.858zm0.26,-18.637c-0.643,-4.06 -0.924,-8.136 -1.992,-11.993c-1.419,-5.123 -4.984,-7.393 -10.078,-7.242c-4.793,0.145 -8.572,2.676 -9.046,7.905c-0.684,7.532 -0.681,15.225 0.024,22.756c0.49,5.227 4.307,7.765 9.065,7.874c5.095,0.116 8.624,-2.181 10.025,-7.314c1.055,-3.866 1.356,-7.938 2.002,-11.986z" fill="#000000" clip-rule="evenodd" fill-rule="evenodd"/>
    <path stroke="null" id="svg_7" d="m6310.314995,4197.340674c1.444,-1.41 2.428,-2.012 2.898,-2.891c3.123,-5.82 8.197,-7.628 14.347,-6.921c6.044,0.698 9.959,4.099 11.416,10.082c0.464,1.904 0.965,3.866 0.985,5.806c0.111,10.915 0.122,21.834 0.074,32.752c-0.013,3.268 -1.605,4.646 -4.8,4.533c-2.991,-0.106 -4.333,-1.616 -4.309,-4.654c0.067,-9.406 0.036,-18.814 0.007,-28.222c-0.006,-1.735 -0.057,-3.49 -0.313,-5.202c-0.674,-4.493 -2.663,-6.895 -6.057,-7.558c-4.38,-0.858 -8.746,0.526 -10.347,4.518c-1.731,4.312 -2.856,9.065 -3.179,13.7c-0.516,7.396 -0.129,14.857 -0.162,22.289c-0.018,3.8 -1.218,5.118 -4.508,5.12c-3.328,0 -4.562,-1.303 -4.564,-5.092c-0.023,-20.093 -0.021,-40.185 -0.002,-60.276c0.003,-3.705 1.319,-5.147 4.535,-5.173c3.174,-0.024 4.59,1.463 4.523,5.142c-0.1,5.566 -0.365,11.129 -0.539,16.695c-0.042,1.368 -0.005,2.74 -0.005,5.352z" fill="#000000" clip-rule="evenodd" fill-rule="evenodd"/>
    <path stroke="null" id="svg_8" d="m6116.265995,4215.257674c0.438,-4.37 0.431,-8.84 1.402,-13.089c2.3,-10.055 8.567,-14.709 19.002,-14.777c10.788,-0.07 17.211,4.384 19.583,14.496c1.923,8.194 1.978,16.65 -0.054,24.842c-2.619,10.553 -10.043,15.136 -21.861,14.21c-9.672,-0.759 -16.162,-7.213 -17.286,-17.305c-0.31,-2.765 -0.365,-5.556 -0.536,-8.334c-0.084,-0.014 -0.167,-0.029 -0.25,-0.043zm9.191,-1.094c0.419,4.157 0.433,8.271 1.322,12.184c1.196,5.255 4.575,7.399 10.281,7.44c5.374,0.041 9.491,-2.148 9.959,-7.244c0.759,-8.216 0.743,-16.609 -0.062,-24.82c-0.498,-5.084 -4.537,-7.146 -10.039,-7.116c-5.459,0.029 -8.895,2.169 -10.069,7.238c-0.932,4.019 -0.965,8.247 -1.392,12.318z" fill="#000000" clip-rule="evenodd" fill-rule="evenodd"/>
    <path stroke="null" id="svg_9" d="m6351.228995,4215.259674c0.438,-4.371 0.432,-8.842 1.403,-13.089c2.3,-10.054 8.567,-14.711 19.001,-14.779c10.789,-0.07 17.208,4.379 19.584,14.494c1.924,8.195 1.978,16.649 -0.053,24.844c-2.615,10.551 -10.043,15.134 -21.859,14.21c-9.672,-0.758 -16.166,-7.21 -17.29,-17.304c-0.308,-2.764 -0.363,-5.554 -0.536,-8.334c-0.082,-0.014 -0.166,-0.028 -0.25,-0.042zm9.194,-1.029c0.418,4.126 0.436,8.239 1.33,12.148c1.201,5.242 4.605,7.386 10.309,7.412c5.37,0.023 9.451,-2.174 9.941,-7.279c0.779,-8.107 0.789,-16.391 0.047,-24.502c-0.471,-5.139 -4.426,-7.318 -9.854,-7.403c-5.608,-0.089 -9.188,2.097 -10.39,7.273c-0.934,4.018 -0.961,8.25 -1.383,12.351z" fill="#000000" clip-rule="evenodd" fill-rule="evenodd"/>
    <path stroke="null" id="svg_10" d="m6432.826995,4231.299674c-1.285,1.12 -2.222,1.604 -2.658,2.37c-3.349,5.888 -7.912,8.195 -14.398,7.138c-6.641,-1.083 -10.791,-4.773 -11.454,-11.64c-0.722,-7.479 -0.567,-15.048 -0.712,-22.579c-0.088,-4.643 -0.047,-9.288 -0.006,-13.934c0.033,-3.613 1.453,-5.135 4.677,-5.004c3.106,0.125 4.478,1.718 4.442,4.92c-0.104,9.521 -0.042,19.043 -0.029,28.563c0.003,1.508 -0.039,3.036 0.166,4.521c0.615,4.46 2.834,7.067 6.379,7.702c4.392,0.786 8.715,-0.683 10.219,-4.725c1.705,-4.575 2.784,-9.55 3.137,-14.422c0.518,-7.162 0.117,-14.388 0.169,-21.588c0.024,-3.623 1.419,-5.044 4.684,-5.001c2.967,0.042 4.396,1.564 4.403,4.99c0.033,14.399 0.035,28.797 -0.001,43.193c-0.011,3.554 -1.528,5.004 -4.81,4.898c-3.154,-0.102 -4.313,-1.488 -4.213,-4.998c0.032,-1.133 0.005,-2.269 0.005,-4.404z" fill="#000000" clip-rule="evenodd" fill-rule="evenodd"/>
    <path stroke="null" id="svg_11" d="m6227.492995,4216.570674c0,2.63 -0.231,4.733 0.043,6.769c0.863,6.387 3.791,9.201 10.205,9.678c3.695,0.275 7.422,0.15 11.133,0.156c2.467,0.005 4.09,0.939 4.023,3.629c-0.066,2.627 -1.654,3.604 -4.134,3.573c-3.714,-0.046 -7.43,0.039 -11.142,-0.038c-11.65,-0.247 -18.252,-5.997 -19.158,-17.658c-0.519,-6.661 -0.344,-13.487 0.487,-20.119c1.331,-10.614 8.378,-15.7 19.647,-15.135c9.176,0.459 15.857,7.293 16.513,16.979c0.159,2.313 0.175,4.64 0.133,6.958c-0.071,3.922 -1.277,5.143 -5.284,5.188c-6.15,0.069 -12.301,0.02 -18.452,0.021c-1.256,-0.001 -2.51,-0.001 -4.014,-0.001zm18.623,-6.404c-0.132,-5.546 0.782,-11.122 -4.542,-14.455c-3.265,-2.047 -7.104,-1.98 -10.171,0.389c-4.621,3.57 -4.037,8.866 -4.063,14.066c6.358,0 12.338,0 18.776,0z" fill="#000000" clip-rule="evenodd" fill-rule="evenodd"/>
    <path stroke="null" id="svg_12" d="m6500.805995,4216.570674c0,2.646 -0.233,4.752 0.042,6.788c0.869,6.378 3.805,9.188 10.225,9.663c3.694,0.271 7.422,0.146 11.135,0.151c2.475,0.006 4.071,0.968 3.999,3.649c-0.063,2.396 -1.427,3.551 -3.804,3.537c-4.411,-0.025 -8.833,0.152 -13.229,-0.115c-10.346,-0.631 -16.422,-6.327 -17.354,-17.242c-0.578,-6.767 -0.391,-13.718 0.447,-20.462c1.318,-10.608 8.392,-15.689 19.662,-15.115c9.174,0.468 15.842,7.308 16.495,16.998c0.153,2.313 0.174,4.642 0.13,6.959c-0.073,3.909 -1.284,5.123 -5.305,5.169c-6.149,0.067 -12.301,0.018 -18.455,0.02c-1.252,0 -2.506,0 -3.988,0zm18.537,-6.437c0.034,-5.364 0.796,-10.746 -4.225,-14.346c-2.841,-2.033 -7.979,-1.822 -10.514,0.341c-4.434,3.781 -3.931,8.92 -3.977,14.005c6.466,0 12.45,0 18.716,0z" fill="#000000" clip-rule="evenodd" fill-rule="evenodd"/>
    <path stroke="null" id="svg_13" d="m6462.946995,4240.366674c-2.089,0 -4.177,-0.031 -6.265,0.007c-2.554,0.043 -4.344,-0.73 -4.309,-3.695c0.033,-2.779 1.749,-3.507 4.141,-3.502c3.363,0.01 6.73,0.078 10.092,-0.048c3.125,-0.116 6.049,-0.714 7.076,-4.374c0.945,-3.374 -0.015,-5.975 -3.387,-8.332c-3.701,-2.588 -7.564,-4.95 -11.196,-7.632c-5.59,-4.131 -7.619,-9.979 -5.771,-15.854c1.678,-5.321 7.112,-8.778 13.994,-8.867c2.9,-0.037 5.803,0.052 8.701,-0.031c2.575,-0.074 4.783,0.323 4.855,3.506c0.08,3.49 -2.371,3.686 -5.011,3.668c-2.894,-0.017 -5.891,-0.314 -8.651,0.33c-1.852,0.432 -4.035,1.946 -4.881,3.589c-1.234,2.392 -0.355,5.067 2.014,6.753c3.486,2.486 7.07,4.838 10.619,7.242c4.502,3.05 7.934,6.791 8.106,12.614c0.239,8.043 -5.075,13.958 -13.171,14.544c-2.309,0.169 -4.638,0.025 -6.958,0.025c0.002,0.018 0.002,0.037 0.002,0.057z" fill="#000000" clip-rule="evenodd" fill-rule="evenodd"/>
    <path stroke="null" id="svg_14" d="m6100.799995,4188.065674c1.506,0 3.016,-0.005 4.522,0.001c2.278,0.004 3.39,1.168 3.455,3.429c0.073,2.438 -1.063,3.634 -3.522,3.699c-2.66,0.066 -5.34,0.069 -7.971,0.412c-5.182,0.675 -8.287,3.266 -8.668,8.405c-0.494,6.666 -0.517,13.422 -0.029,20.087c0.402,5.499 3.558,8.102 9.127,8.749c2.523,0.291 5.088,0.256 7.636,0.345c2.224,0.081 3.44,1.111 3.438,3.437c0,2.391 -1.072,3.732 -3.539,3.725c-3.016,-0.011 -6.053,0.158 -9.041,-0.143c-8.758,-0.885 -14.024,-5.312 -16.157,-13.834c-2.001,-7.986 -2.064,-16.114 -0.066,-24.107c2.345,-9.381 8.382,-13.965 18.03,-14.191c0.928,-0.021 1.855,-0.003 2.785,-0.003l0,-0.011z" fill="#000000" clip-rule="evenodd" fill-rule="evenodd"/>
    <path stroke="null" id="svg_15" d="m6276.545995,4196.611674c0.729,-0.794 1.682,-1.478 2.151,-2.402c2.372,-4.678 6.139,-7.003 10.787,-6.617c2.655,0.221 3.552,1.721 3.528,4.176c-0.023,2.412 0.013,4.683 -3.215,5.187c-10.551,1.646 -13.375,4.756 -13.687,15.564c-0.222,7.765 -0.042,15.539 -0.099,23.309c-0.029,3.854 -1.658,5.163 -5.445,4.766c-2.402,-0.25 -3.594,-1.567 -3.6,-3.85c-0.035,-15.075 -0.038,-30.151 0.002,-45.229c0.008,-3.074 2.217,-3.885 4.737,-3.828c2.627,0.059 4.479,1.227 4.288,4.258c-0.082,1.266 -0.24,2.53 -0.361,3.795c0.307,0.288 0.611,0.58 0.914,0.871z" fill="#000000" clip-rule="evenodd" fill-rule="evenodd"/>
   </g>
   <path stroke="null" id="svg_16" d="m81.361603,140.829987c-31.915083,0 -57.78519,25.87096 -57.78519,57.78519s25.870107,57.78519 57.78519,57.78519c31.913376,0 57.78519,-25.87096 57.78519,-57.78519s-25.871814,-57.78519 -57.78519,-57.78519zm20.203102,87.049357c-2.413724,5.116686 -10.87669,5.050136 -20.203956,5.050136c-9.911713,0 -18.552146,0.612603 -20.843861,-5.050136c-3.017795,-7.457034 -6.134563,-16.023238 -6.30947,-21.389061c-0.113477,-3.518628 0.984602,-6.322268 4.540771,-6.322268c3.659407,0 6.282167,2.968309 6.282167,6.627717c0,8.493682 0.786657,17.893469 16.359402,17.893469c15.3347,0 15.92,-8.364847 15.92,-17.893469c0,-3.659407 2.967456,-6.627717 6.626863,-6.627717c3.259253,0 4.446918,2.30622 4.446918,5.456263c0.000853,7.385365 -3.318978,14.83984 -6.818835,22.255067zm1.453866,-35.931131c-2.255881,0 -4.244708,-1.1305 -5.440905,-2.852273l-0.054605,0.001706c0,0 -9.74875,-18.365293 -16.309063,-18.365293c-6.55946,0.001706 -16.302237,18.365293 -16.302237,18.365293l-0.04778,-0.001706c-1.196197,1.721773 -3.185024,2.852273 -5.440905,2.852273c-3.657701,0 -6.624304,-3.111648 -6.624304,-6.771055c0,-1.743103 0.679153,-2.946979 1.780644,-4.653394l-0.007679,0l0.038394,0.11177c0.279852,-0.29521 22.335268,-19.591353 22.348066,-19.591353c0,0 0.004266,0.044367 0.005972,0.044367c0.367732,-0.368586 1.92057,-1.415471 4.302726,-1.415471c3.05107,0 4.013488,1.247389 4.208873,1.440214c0,0 22.076746,19.221914 22.354892,19.51883l0.040101,-0.108357l-0.008532,0c1.101491,1.706415 1.780644,2.910291 1.780644,4.653394c0,3.659407 -2.96575,6.771055 -6.624304,6.771055z" fill="#56D0B3" clip-rule="evenodd" fill-rule="evenodd"/>
  </g>
 </g>
</svg>