<?xml version="1.0" encoding="utf-8"?>
<!-- Generator: Adobe Illustrator 16.0.0, SVG Export Plug-In . SVG Version: 6.00 Build 0)  -->
<!DOCTYPE svg PUBLIC "-//W3C//DTD SVG 1.1//EN" "http://www.w3.org/Graphics/SVG/1.1/DTD/svg11.dtd">
<svg version="1.1" id="Layer_1" xmlns="http://www.w3.org/2000/svg" xmlns:xlink="http://www.w3.org/1999/xlink" x="0px" y="0px"
	 width="138px" height="46px" viewBox="0 0 138 46" enable-background="new 0 0 138 46" xml:space="preserve">
<g>
	<g>
		<path fill="#F5F5F5" d="M56.585,34.207c-1.3-1.005-2.232-2.256-2.796-3.752l-0.681-1.768l4.581-1.342l0.588,1.471
			c0.65,1.619,1.895,2.43,3.734,2.43c0.466,0,0.951-0.062,1.454-0.186c1.104-0.27,1.864-0.943,2.281-2.022
			c0.294-0.761,0.387-1.502,0.276-2.226c-0.258-1.545-1.772-2.864-4.544-3.957c-1.778-0.699-3.115-1.398-4.01-2.097
			c-1.619-1.238-2.533-2.79-2.741-4.654c-0.184-1.729,0.264-3.311,1.343-4.746c1.006-1.324,2.263-2.183,3.771-2.575
			c0.821-0.221,1.637-0.331,2.447-0.331c1.496,0,2.833,0.362,4.01,1.085c1.189,0.724,2.054,1.705,2.594,2.943l0.772,1.784
			L65.139,15.7l-0.662-1.361c-0.356-0.736-1.098-1.104-2.226-1.104c-0.38,0-0.772,0.049-1.177,0.147
			c-0.405,0.11-0.779,0.374-1.122,0.791c-0.368,0.454-0.527,0.926-0.479,1.417c0.074,0.552,0.423,1.055,1.049,1.508
			c0.54,0.38,1.441,0.816,2.704,1.306c4.464,1.754,6.965,4.305,7.506,7.653c0.33,2.049-0.014,3.979-1.03,5.795
			c-1.129,2.012-2.827,3.293-5.096,3.844c-0.883,0.222-1.748,0.332-2.594,0.332C59.952,36.027,58.143,35.422,56.585,34.207z"/>
		<path fill="#F5F5F5" d="M85.45,27.99l4.581,1.324l-0.607,1.746c-1.166,3.312-3.863,4.967-8.094,4.967
			c-1.926,0-3.496-0.299-4.71-0.9c-1.778-0.883-2.986-2.428-3.624-4.636c-0.318-1.091-0.46-3.931-0.424-8.517
			c0.037-4.207,0.136-6.721,0.295-7.542c0.76-4.047,3.537-6.071,8.334-6.071c4.66,0,7.462,1.821,8.406,5.464l0.459,1.803
			l-4.672,0.901l-0.441-1.563c-0.146-0.577-0.393-0.987-0.735-1.233c-0.577-0.404-1.582-0.607-3.017-0.607
			c-1.447,0-2.43,0.221-2.943,0.662c-0.318,0.27-0.553,0.785-0.699,1.545c-0.135,0.736-0.209,3.042-0.221,6.917
			c0,3.949,0.086,6.254,0.258,6.917c0.195,0.698,0.459,1.177,0.791,1.435c0.563,0.431,1.545,0.646,2.943,0.646
			c1.312,0,2.236-0.172,2.777-0.517c0.317-0.209,0.582-0.601,0.791-1.178L85.45,27.99z"/>
		<path fill="#F5F5F5" d="M98.917,34.539c-4.438-11.333-6.771-19.298-6.99-23.897l-0.093-1.839h4.783l0.074,1.655
			c0.158,3.066,1.68,8.622,4.562,16.667c2.832-8.045,4.322-13.601,4.47-16.667l0.092-1.655h4.766l-0.073,1.839
			c-0.222,4.599-2.515,12.564-6.88,23.897l-0.441,1.104l-3.826,0.019L98.917,34.539z"/>
	</g>
	<polygon fill="#1CAE8D" points="0.441,23.502 26.654,23.502 13.505,45.971 	"/>
	
		<linearGradient id="SVGID_1_" gradientUnits="userSpaceOnUse" x1="337.207" y1="-262.7588" x2="352.8664" y2="-257.0735" gradientTransform="matrix(1 0 0 -1 -327 -236)">
		<stop  offset="0" style="stop-color:#1CAE8D"/>
		<stop  offset="1" style="stop-color:#037B63"/>
	</linearGradient>
	<polygon fill="url(#SVGID_1_)" points="0.441,23.502 26.654,23.502 6.973,34.736 	"/>
	<polygon fill="#1CAE8D" points="22.182,0.166 4.15,10.596 22.182,20.85 	"/>
	
		<linearGradient id="SVGID_2_" gradientUnits="userSpaceOnUse" x1="346.2773" y1="-243.8594" x2="349.2798" y2="-254.8992" gradientTransform="matrix(1 0 0 -1 -327 -236)">
		<stop  offset="0" style="stop-color:#1CAE8D"/>
		<stop  offset="1" style="stop-color:#037B63"/>
	</linearGradient>
	<polygon fill="url(#SVGID_2_)" points="22.182,0.166 13.548,5.161 22.182,20.85 	"/>
	<polygon fill="#1CAE8D" points="35.394,0.029 24.963,18.032 45.68,18.032 	"/>
	<g>
		
			<linearGradient id="SVGID_3_" gradientUnits="userSpaceOnUse" x1="368.6572" y1="-250.2866" x2="350.2832" y2="-259.8574" gradientTransform="matrix(1 0 0 -1 -327 -236)">
			<stop  offset="0" style="stop-color:#1CAE8D"/>
			<stop  offset="1" style="stop-color:#037B63"/>
		</linearGradient>
		<polygon fill="url(#SVGID_3_)" points="24.963,18.032 45.68,18.032 40.536,9.03 		"/>
	</g>
	<polygon fill="#1CAE8D" points="27.799,21.054 27.799,41.913 45.68,31.449 	"/>
	<g>
		
			<linearGradient id="SVGID_4_" gradientUnits="userSpaceOnUse" x1="358.416" y1="-269.4043" x2="357.6227" y2="-258.0811" gradientTransform="matrix(1 0 0 -1 -327 -236)">
			<stop  offset="0" style="stop-color:#1CAE8D"/>
			<stop  offset="1" style="stop-color:#037B63"/>
		</linearGradient>
		<polygon fill="url(#SVGID_4_)" points="27.799,21.054 27.799,41.913 35.894,37.176 		"/>
	</g>
	<g>
		<path fill="#F5F5F5" d="M112.957,35.887c-1.039-0.008-1.895-0.289-2.566-0.848l0.68-0.725c0.488,0.377,1.123,0.569,1.898,0.578
			c0.701,0,1.256-0.22,1.662-0.656c0.34-0.361,0.493-0.795,0.463-1.301c-0.061-0.927-0.762-1.658-2.103-2.192l-0.079-0.034
			c-0.678-0.279-1.164-0.531-1.459-0.758c-0.496-0.398-0.771-0.908-0.824-1.525c-0.045-0.559,0.098-1.062,0.43-1.516
			c0.34-0.459,0.783-0.758,1.334-0.893c0.301-0.068,0.588-0.103,0.859-0.103c0.73,0,1.432,0.269,2.102,0.803l-0.654,0.746
			c-0.469-0.368-0.95-0.555-1.446-0.555c-0.196,0-0.403,0.026-0.623,0.08c-0.293,0.067-0.538,0.219-0.733,0.45
			c-0.211,0.266-0.306,0.562-0.282,0.895c0.038,0.354,0.202,0.641,0.497,0.859c0.203,0.158,0.596,0.354,1.176,0.588l0.079,0.033
			c1.726,0.693,2.634,1.715,2.725,3.063c0.054,0.784-0.192,1.462-0.735,2.034c-0.608,0.648-1.396,0.973-2.361,0.973h-0.037V35.887z"
			/>
		<path fill="#F5F5F5" d="M118.916,35.152c-0.641-0.49-1.082-1.146-1.323-1.967c-0.354-1.252-0.372-2.718-0.057-4.398
			c0.181-0.949,0.573-1.68,1.176-2.193c0.603-0.504,1.384-0.757,2.341-0.757c0.918,0,1.715,0.271,2.385,0.813
			s1.09,1.256,1.256,2.137c0.322,1.682,0.306,3.146-0.057,4.398c-0.25,0.844-0.684,1.506-1.301,1.987
			c-0.618,0.476-1.354,0.713-2.205,0.713C120.295,35.887,119.557,35.643,118.916,35.152z M118.508,28.969
			c-0.285,1.529-0.271,2.842,0.047,3.934c0.172,0.619,0.488,1.104,0.949,1.459c0.467,0.354,1.01,0.531,1.627,0.531
			c1.318,0,2.167-0.664,2.544-1.99c0.316-1.092,0.331-2.403,0.046-3.934c-0.129-0.656-0.43-1.176-0.904-1.561
			c-0.482-0.385-1.07-0.576-1.764-0.576C119.627,26.832,118.779,27.544,118.508,28.969z"/>
		<path fill="#F5F5F5" d="M127.836,35.66v-8.604h-1.527v-0.982h1.527V23.96c0-0.769,0.07-1.372,0.215-1.809
			c0.256-0.776,0.758-1.323,1.504-1.639c0.43-0.173,0.894-0.26,1.391-0.26c0.322,0,0.64,0.034,0.949,0.102l-0.271,0.961
			c-0.227-0.045-0.453-0.068-0.68-0.068c-0.369,0-0.704,0.061-1.006,0.181c-0.438,0.188-0.738,0.498-0.904,0.927
			c-0.143,0.354-0.215,0.889-0.215,1.605v2.114h2.147v0.982h-2.147v8.604H127.836z"/>
		<path fill="#F5F5F5" d="M134.9,35.445c-0.489-0.438-0.734-1.096-0.734-1.979V27.17h-1.764v-0.995h1.764v-3.651h0.984v3.651h1.91
			v0.995h-1.91v6.296c0,0.589,0.135,1.003,0.406,1.244c0.227,0.196,0.562,0.294,1.006,0.294c0.061,0,0.121,0,0.182,0l0.113,0.982
			c-0.1,0.009-0.196,0.013-0.295,0.013C135.861,36,135.309,35.814,134.9,35.445z"/>
	</g>
</g>
</svg>
