<svg id="Layer_1" data-name="Layer 1" xmlns="http://www.w3.org/2000/svg" xmlns:xlink="http://www.w3.org/1999/xlink" viewBox="0 0 239.24 95.31"><defs><style>.cls-1{fill:url(#linear-gradient);}.cls-2{fill:url(#linear-gradient-2);}.cls-3{fill:#14559a;}.cls-4{fill:url(#linear-gradient-3);}.cls-5{fill:#3092c4;}.cls-6{fill:#1969bc;}.cls-7{fill:url(#linear-gradient-4);}.cls-8{fill:url(#linear-gradient-5);}.cls-9{fill:url(#linear-gradient-6);}.cls-10{fill:#2b74b1;}.cls-11{fill:#125a9e;}.cls-12{fill:url(#linear-gradient-7);}.cls-13{fill:url(#linear-gradient-8);}.cls-14{fill:#0d82ca;}.cls-15{fill:url(#linear-gradient-9);}.cls-16{fill:#127bca;}.cls-17{fill:url(#linear-gradient-10);}.cls-18{fill:url(#linear-gradient-11);}.cls-19{fill:#05a1e6;}.cls-20{fill:url(#linear-gradient-12);}.cls-21{fill:url(#linear-gradient-13);}.cls-22{fill:url(#linear-gradient-14);}.cls-23{fill:#079ae1;}.cls-24{fill:#1e5cb3;}.cls-25{fill:#1d60b5;}.cls-26{fill:#175fab;}.cls-27{fill:url(#linear-gradient-15);}.cls-28{fill:#7dcbec;}.cls-29{fill:#5ec5ed;}.cls-30{fill:url(#linear-gradient-16);}.cls-31{fill:url(#linear-gradient-17);}.cls-32{fill:url(#linear-gradient-18);}</style><linearGradient id="linear-gradient" x1="-111" y1="290.81" x2="-111" y2="289.41" gradientTransform="matrix(45.61, 0, 0, -81.34, 5174.58, 23657.53)" gradientUnits="userSpaceOnUse"><stop offset="0" stop-color="#0994dc"/><stop offset="0.35" stop-color="#66cef5"/><stop offset="0.85" stop-color="#127bca"/><stop offset="1" stop-color="#127bca"/></linearGradient><linearGradient id="linear-gradient-2" x1="-111.13" y1="290.87" x2="-111.13" y2="289.47" gradientTransform="matrix(47.87, 0, 0, -83.41, 5435.89, 24262.34)" gradientUnits="userSpaceOnUse"><stop offset="0" stop-color="#0e76bc"/><stop offset="0.36" stop-color="#36aee8"/><stop offset="0.85" stop-color="#00adef"/><stop offset="1" stop-color="#00adef"/></linearGradient><linearGradient id="linear-gradient-3" x1="-111.03" y1="289.66" x2="-111.03" y2="290.76" gradientTransform="matrix(45.45, 0, 0, -84.5, 5186.57, 24569.69)" gradientUnits="userSpaceOnUse"><stop offset="0" stop-color="#1c63b7"/><stop offset="0.5" stop-color="#33bdf2"/><stop offset="1" stop-color="#33bdf2" stop-opacity="0.42"/></linearGradient><linearGradient id="linear-gradient-4" x1="-111" y1="290.95" x2="-111" y2="289.54" gradientTransform="matrix(45.01, 0, 0, -86.6, 5129.93, 25185.01)" gradientUnits="userSpaceOnUse"><stop offset="0" stop-color="#166ab8"/><stop offset="0.4" stop-color="#36aee8"/><stop offset="0.85" stop-color="#0798dd"/><stop offset="1" stop-color="#0798dd"/></linearGradient><linearGradient id="linear-gradient-5" x1="-111.56" y1="291.08" x2="-111.56" y2="289.68" gradientTransform="matrix(58.35, 0, 0, -92.08, 6633.88, 26793.57)" gradientUnits="userSpaceOnUse"><stop offset="0" stop-color="#124379"/><stop offset="0.39" stop-color="#1487cb"/><stop offset="0.78" stop-color="#165197"/><stop offset="1" stop-color="#165197"/></linearGradient><linearGradient id="linear-gradient-6" x1="-108" y1="286.28" x2="-107.06" y2="286.28" gradientTransform="matrix(19.42, 0, 0, -30.92, 2169.5, 8882.32)" gradientUnits="userSpaceOnUse"><stop offset="0" stop-color="#33bdf2" stop-opacity="0.7"/><stop offset="1" stop-color="#1dacd8"/></linearGradient><linearGradient id="linear-gradient-7" x1="-112.14" y1="290.14" x2="-112.14" y2="291.06" gradientTransform="matrix(79.14, 0, 0, -98.68, 9084.39, 28721.85)" gradientUnits="userSpaceOnUse"><stop offset="0" stop-color="#136ab4"/><stop offset="0.6" stop-color="#59caf5" stop-opacity="0.55"/><stop offset="1" stop-color="#59caf5" stop-opacity="0.24"/></linearGradient><linearGradient id="linear-gradient-8" x1="-112.33" y1="290.57" x2="-111.39" y2="290.57" gradientTransform="matrix(72.02, 0, 0, -99.16, 8097.56, 28865.38)" gradientUnits="userSpaceOnUse"><stop offset="0" stop-color="#05a1e6" stop-opacity="0.25"/><stop offset="1" stop-color="#05a1e6"/></linearGradient><linearGradient id="linear-gradient-9" x1="-111.09" y1="289.21" x2="-111.09" y2="290.46" gradientTransform="matrix(49.05, 0, 0, -73.82, 5494.18, 21443)" gradientUnits="userSpaceOnUse"><stop offset="0" stop-color="#318ed5"/><stop offset="1" stop-color="#38a7e4"/></linearGradient><linearGradient id="linear-gradient-10" x1="-110.92" y1="288.79" x2="-110.92" y2="290.37" gradientTransform="matrix(45.6, 0, 0, -57.13, 5109.1, 16591.71)" gradientUnits="userSpaceOnUse"><stop offset="0" stop-color="#05a1e6"/><stop offset="1" stop-color="#05a1e6" stop-opacity="0.55"/></linearGradient><linearGradient id="linear-gradient-11" x1="-111.26" y1="289.68" x2="-111.26" y2="290.62" gradientTransform="matrix(52.52, 0, 0, -81.09, 5899.17, 23589.43)" gradientUnits="userSpaceOnUse"><stop offset="0" stop-color="#1959a6"/><stop offset="0.5" stop-color="#05a1e6"/><stop offset="0.92" stop-color="#7ec5ea"/><stop offset="1" stop-color="#7ec5ea"/></linearGradient><linearGradient id="linear-gradient-12" x1="-111.79" y1="290.15" x2="-111.99" y2="290.99" gradientTransform="matrix(72.68, 0, 0, -99, 8183.05, 28819.67)" gradientUnits="userSpaceOnUse"><stop offset="0" stop-color="#165096"/><stop offset="1" stop-color="#0d82ca"/></linearGradient><linearGradient id="linear-gradient-13" x1="-110.18" y1="288.89" x2="-110.18" y2="289.64" gradientTransform="matrix(32.77, 0, 0, -57.23, 3804.19, 16578.39)" gradientUnits="userSpaceOnUse"><stop offset="0" stop-color="#05a1e6"/><stop offset="0.87" stop-color="#0495d6"/><stop offset="1" stop-color="#0495d6"/></linearGradient><linearGradient id="linear-gradient-14" x1="-111.56" y1="291.03" x2="-111.86" y2="289.99" gradientTransform="matrix(60.27, 0, 0, -96.32, 6938.16, 28031.67)" gradientUnits="userSpaceOnUse"><stop offset="0" stop-color="#38a7e4" stop-opacity="0.33"/><stop offset="0.96" stop-color="#0e88d3"/><stop offset="1" stop-color="#0e88d3"/></linearGradient><linearGradient id="linear-gradient-15" x1="-111.96" y1="291.03" x2="-111.96" y2="290.06" gradientTransform="matrix(70.28, 0, 0, -98.11, 8067.03, 28555.38)" gradientUnits="userSpaceOnUse"><stop offset="0" stop-color="#168cd4"/><stop offset="0.5" stop-color="#1c87cc"/><stop offset="1" stop-color="#154b8d"/></linearGradient><linearGradient id="linear-gradient-16" x1="-110.26" y1="336.63" x2="-109.59" y2="338.75" gradientTransform="translate(3657.19 -1429.6) scale(32.46 4.25)" gradientUnits="userSpaceOnUse"><stop offset="0" stop-color="#97d6ee"/><stop offset="0.7" stop-color="#55c1ea"/><stop offset="1" stop-color="#55c1ea"/></linearGradient><linearGradient id="linear-gradient-17" x1="-109.58" y1="318.79" x2="-108.93" y2="317.75" gradientTransform="translate(2991.58 -2374.19) scale(26.47 7.48)" gradientUnits="userSpaceOnUse"><stop offset="0" stop-color="#7accec"/><stop offset="1" stop-color="#3fb7ed"/></linearGradient><linearGradient id="linear-gradient-18" x1="-111.4" y1="290.53" x2="-111.4" y2="289.39" gradientTransform="matrix(52.04, 0, 0, -80.64, 5983.61, 23435.35)" gradientUnits="userSpaceOnUse"><stop offset="0" stop-color="#1da7e7"/><stop offset="1" stop-color="#37abe7" stop-opacity="0"/></linearGradient></defs><title>net</title><path class="cls-1" d="M90.61,22.46c8.62,26.37,11.89,73.4,37.1,73.4h0a31.05,31.05,0,0,0,5.81-.56h0c-22.92-5.34-25.64-51.87-39.62-76h0c-1.1,1-2.19,2-3.29,3.12" transform="translate(-7.52 -3)"/><path class="cls-2" d="M93.89,19.35c14,24.09,16.7,70.62,39.62,76h0a36.47,36.47,0,0,0,5.41-1.46h0c-20.57-10.08-26.26-55.26-42.14-77h0q-1.44,1.2-2.89,2.51" transform="translate(-7.52 -3)"/><path class="cls-3" d="M114,5a31.15,31.15,0,0,0-5.81.56,44.48,44.48,0,0,0-15.51,6.48,38.49,38.49,0,0,1,4.06,4.78,55.7,55.7,0,0,1,15.85-9.63,35.34,35.34,0,0,1,5.91-1.64A18.22,18.22,0,0,0,114,5" transform="translate(-7.52 -3)"/><path class="cls-4" d="M155,84.55Q158.14,82,161.31,79c-8.76-26.24-11.9-74-37.29-74a30.05,30.05,0,0,0-5.47.51c23.13,5.75,26.09,56.07,36.44,79" transform="translate(-7.52 -3)"/><path class="cls-5" d="M118.55,5.57A18.23,18.23,0,0,0,114,5l10,0a29.7,29.7,0,0,0-5.47.51" transform="translate(-7.52 -3)"/><path class="cls-6" d="M154.54,90.13A37.57,37.57,0,0,1,151.68,87a52.53,52.53,0,0,1-12.75,6.81,19.64,19.64,0,0,0,4.76,1.62,20.15,20.15,0,0,0,4.05.4c4.74,0,8.5-.56,11.69-2.09a22.19,22.19,0,0,1-4.88-3.64" transform="translate(-7.52 -3)"/><path class="cls-7" d="M112.64,7.22c20.71,10.83,22.52,59.9,39,79.82h0c1.11-.78,2.2-1.61,3.3-2.48h0c-10.35-22.92-13.3-73.24-36.43-79h0a35.81,35.81,0,0,0-5.92,1.65" transform="translate(-7.52 -3)"/><path class="cls-8" d="M96.79,16.84c15.88,21.75,21.57,66.93,42.14,77h0A52.53,52.53,0,0,0,151.68,87h0c-16.53-19.92-18.33-69-39-79.82h0a55.59,55.59,0,0,0-15.85,9.62" transform="translate(-7.52 -3)"/><path class="cls-9" d="M80.45,21.83a236.78,236.78,0,0,0-8.11,22.68,168.73,168.73,0,0,1,18.27-22,66.23,66.23,0,0,0-2.7-7,91,91,0,0,0-7.46,6.41" transform="translate(-7.52 -3)"/><path class="cls-10" d="M90.12,13.8c-.73.52-1.47,1.06-2.2,1.62a66.33,66.33,0,0,1,2.69,7c1.1-1.08,2.19-2.12,3.29-3.12a43.62,43.62,0,0,0-3.77-5.55" transform="translate(-7.52 -3)"/><path class="cls-11" d="M92.73,12.06c-.87.55-1.74,1.13-2.61,1.74a43.83,43.83,0,0,1,3.78,5.55c1-.87,1.93-1.72,2.89-2.51a38.49,38.49,0,0,0-4.06-4.78" transform="translate(-7.52 -3)"/><path class="cls-12" d="M234,3c-11.72,45.18-36.19,81.47-56.7,90.62h0l-1.11.47a1,1,0,0,1-.13.05l-.32.12-.14.06-.51.18-.21.07-.25.08-.25.09-.22.07-.44.13a.84.84,0,0,0-.18,0l-.3.08a.92.92,0,0,1-.2.06l-.32.08-.39.09a8.35,8.35,0,0,0,2.94.52C194.69,95.83,214.3,61,246.76,3H234Z" transform="translate(-7.52 -3)"/><path class="cls-13" d="M68.12,6.85s0,0,0,0a0,0,0,0,0,0,0h0l.32-.12a.06.06,0,0,0,.06,0s.05,0,.08,0L69,6.49h0c.26-.08.5-.17.75-.26,0,0,.07,0,.11,0l.32-.1a.63.63,0,0,1,.15,0l.32-.1s.09,0,.12,0l1.07-.28c.05,0,.09,0,.15,0l.31-.06a.54.54,0,0,1,.15,0c.1,0,.2,0,.32-.06h.07l.65-.12h.13a2.74,2.74,0,0,1,.3-.05c.06,0,.12,0,.17,0a2.22,2.22,0,0,0,.29,0,.31.31,0,0,0,.16,0c.23,0,.46,0,.7-.06C74.6,5,73.91,5,73.2,5,51.3,5,21.11,45.65,7.52,98.29h2.62c4.35-7.76,8.26-15.1,11.83-22C31.49,39,50.89,13.58,68.12,6.85" transform="translate(-7.52 -3)"/><path class="cls-14" d="M80.45,21.83a91,91,0,0,1,7.46-6.41A35.25,35.25,0,0,0,86.13,12a42.09,42.09,0,0,0-5.69,9.84" transform="translate(-7.52 -3)"/><path class="cls-14" d="M82.25,7.16A18.69,18.69,0,0,1,86.13,12c.37-.45.74-.87,1.13-1.27A22,22,0,0,0,82,7l.23.11,0,0" transform="translate(-7.52 -3)"/><path class="cls-15" d="M22,76.3c20-38.49,29.44-62.86,46.15-69.45h0C50.89,13.59,31.49,39,22,76.3" transform="translate(-7.52 -3)"/><path class="cls-16" d="M87.26,10.72c-.39.4-.76.81-1.13,1.27a35.74,35.74,0,0,1,1.78,3.44c.74-.57,1.47-1.1,2.2-1.62a30,30,0,0,0-2.85-3.08" transform="translate(-7.52 -3)"/><path class="cls-17" d="M31,98.12h0a2.68,2.68,0,0,1-.36,0h-.07c-.1,0-.21,0-.31,0h-.05c-.25,0-.5,0-.73,0h-.08c20.22-.57,29.46-10.69,34-25.37C67,61.74,69.83,52.37,72.34,44.5a402,402,0,0,0-25.53,42C42.69,94.21,36.42,97.42,31,98.1" transform="translate(-7.52 -3)"/><path class="cls-18" d="M31,98.11h0c5.38-.69,11.65-3.89,15.77-11.56h0a403.77,403.77,0,0,1,25.52-42h0a236.24,236.24,0,0,1,8.11-22.68h0C63.58,37.87,46.66,64.56,31,98.1" transform="translate(-7.52 -3)"/><path class="cls-19" d="M22,76.3c-3.57,6.89-7.48,14.23-11.83,22h7.62A186.28,186.28,0,0,1,22,76.3" transform="translate(-7.52 -3)"/><path class="cls-20" d="M74.57,5.19c-.06,0-.11,0-.16,0h0a1.32,1.32,0,0,1-.28,0h0a.34.34,0,0,0-.17,0h0a2.93,2.93,0,0,1-.3.05h0a.2.2,0,0,0-.13,0h0l-.65.11H72.8l-.32.06h0a.54.54,0,0,1-.16,0h0L72,5.65h0a.29.29,0,0,1-.15,0h0L70.81,6h0s-.08,0-.12,0h0l-.32.1h0a.45.45,0,0,1-.15,0h0l-.32.1h0s-.08,0-.12,0h0c-.25.09-.49.18-.74.26h0l-.34.12h0a.71.71,0,0,1-.14.06h0l-.32.12h0a.53.53,0,0,1-.1,0h0C51.43,13.46,42,37.82,22,76.32h0a185.47,185.47,0,0,0-4.21,22h1.07c3,0,3.86,0,7.33,0h3.36c.24,0,.48,0,.73,0h0c.1,0,.21,0,.31,0h.07c.11,0,.24,0,.36,0h0C46.68,64.61,63.6,37.92,80.47,21.87h0A42.23,42.23,0,0,1,86.15,12h0A18.63,18.63,0,0,0,82.27,7.2h0s0,0,0,0h0L82,7.05h0l-.23-.12h0l-.23-.11h0a2.14,2.14,0,0,1-.27-.11h0L81,6.62h0l-.44-.18h0l-.19-.07h0l-.33-.13h0a1.13,1.13,0,0,0-.18-.06h0L79.44,6h0l-.53-.15h0a.23.23,0,0,0-.12,0h0l-.45-.13h0s-.07,0-.1,0h0c-.36-.1-.73-.17-1.11-.24h0s-.08,0-.12,0h0l-.48-.08h0a.13.13,0,0,0-.1,0h0l-.57-.07h-.1c-.15,0-.3,0-.44,0h0l-.7.06" transform="translate(-7.52 -3)"/><path class="cls-21" d="M188.26,28c-3.84,12.31-7,22.47-9.66,30.83h0C189.14,44.34,199.53,26.08,209.42,5h0c-11.54,3.62-17.69,11.92-21.16,23" transform="translate(-7.52 -3)"/><path class="cls-22" d="M178.93,92.86c-.54.27-1.08.53-1.61.77C197.83,84.48,222.3,48.19,234,3h-2.37c-26.92,48.08-35.57,80.27-52.72,89.85" transform="translate(-7.52 -3)"/><path class="cls-23" d="M165.53,88.82c4.46-5.45,8.1-14.71,13.06-30A150,150,0,0,1,161.34,79s0,0,0,0a52.56,52.56,0,0,0,4.21,9.78" transform="translate(-7.52 -3)"/><path class="cls-6" d="M165.53,88.82a18.29,18.29,0,0,1-4.92,4.31c-.39.23-.79.44-1.19.64a17.29,17.29,0,0,0,6.26,2h0l1,.09h.06a2.74,2.74,0,0,1,.49,0h1.67a.41.41,0,0,0,.19,0,1.52,1.52,0,0,0,.37,0h.18c.13,0,.26,0,.4,0h0s.08,0,.12,0l.43-.06h.13l.48-.08h.08c.32-.06.64-.12,1-.2-2.65-1-4.86-3.25-6.77-6.51" transform="translate(-7.52 -3)"/><path class="cls-24" d="M127.71,95.86a30.75,30.75,0,0,0,5.81-.56,36,36,0,0,0,5.41-1.46,19.68,19.68,0,0,0,4.75,1.62,20.19,20.19,0,0,0,4.06.4Z" transform="translate(-7.52 -3)"/><path class="cls-24" d="M147.74,95.86c4.74,0,8.5-.56,11.68-2.09a17.29,17.29,0,0,0,6.26,2h0l1,.09h.06a2.74,2.74,0,0,1,.49,0H147.74Z" transform="translate(-7.52 -3)"/><path class="cls-25" d="M167.85,95.86h1.1a.4.4,0,0,0,.19,0,1.57,1.57,0,0,0,.37,0h.18c.13,0,.26,0,.4,0h0s.08,0,.12,0l.43-.06a.22.22,0,0,0,.13,0l.48-.08h.08c.32-.06.64-.12,1-.2h0a8.36,8.36,0,0,0,2.94.52l-7.39,0Z" transform="translate(-7.52 -3)"/><path class="cls-26" d="M161.32,79v0q-3.17,3-6.33,5.54c-1.1.87-2.2,1.7-3.3,2.48a37.55,37.55,0,0,0,2.86,3.09,22.19,22.19,0,0,0,4.88,3.64c.4-.2.8-.41,1.19-.64a18.24,18.24,0,0,0,4.92-4.31A52.56,52.56,0,0,1,161.33,79" transform="translate(-7.52 -3)"/><path class="cls-27" d="M224.13,3H212.18l-1.89.09h0c-.29.63-.59,1.25-.88,1.89h0c-9.89,21.07-20.28,39.32-30.83,53.84h0c-5,15.26-8.6,24.52-13.06,30h0c1.91,3.25,4.13,5.54,6.77,6.51h0a1.21,1.21,0,0,1,.21,0h0s.1,0,.15,0h0l.33-.08h0a1.71,1.71,0,0,1,.2-.06h0l.3-.08h0a.7.7,0,0,1,.18-.05h0l.44-.13h0l.22-.07h0l.25-.09h0l.25-.08h0l.21-.08h0l.52-.18h0s.09,0,.14-.05h0l.32-.12h0a.39.39,0,0,1,.13,0h0l1.11-.47h0c.53-.23,1.07-.5,1.6-.77h0C196.06,83.28,204.72,51.1,231.64,3h-7.51Z" transform="translate(-7.52 -3)"/><path class="cls-28" d="M75.27,5.12a.19.19,0,0,1,.12,0,1,1,0,0,1,.31,0h.1l.57.07a.12.12,0,0,1,.1,0l.48.08.12,0c.37.07.75.15,1.11.25,0,0,.07,0,.1,0l.45.13s.08,0,.12,0l.53.15s0,0,0,0l.46.16a.88.88,0,0,0,.18.06l.33.14a.67.67,0,0,1,.19.06l.44.18.22.09.27.11.23.11.23.12a22.08,22.08,0,0,1,5.29,3.71,17.19,17.19,0,0,1,1.88-1.7,20.67,20.67,0,0,0-12.24-4c-.54,0-1.08,0-1.62.07" transform="translate(-7.52 -3)"/><path class="cls-29" d="M87.26,10.72a30,30,0,0,1,2.85,3.08c.87-.61,1.74-1.19,2.61-1.74a27.52,27.52,0,0,0-3.59-3,16.8,16.8,0,0,0-1.87,1.7" transform="translate(-7.52 -3)"/><path class="cls-30" d="M75.27,5.12c.55,0,1.08-.07,1.62-.07A20.69,20.69,0,0,1,89.14,9c3.76-3,8.3-4,14.6-4H73.2c.7,0,1.39,0,2.07.1" transform="translate(-7.52 -3)"/><path class="cls-31" d="M103.74,5c-6.31,0-10.85,1-14.6,4a27.74,27.74,0,0,1,3.59,3,44.51,44.51,0,0,1,15.51-6.49A31.48,31.48,0,0,1,114,5Z" transform="translate(-7.52 -3)"/><path class="cls-32" d="M178.59,58.86c2.71-8.36,5.82-18.52,9.67-30.83,3.47-11.1,9.61-19.39,21.15-23,.3-.62.59-1.26.89-1.89-18.81,1.13-27.6,10.7-32,24.87-7.74,24.74-12.42,40.77-16.94,51a150.45,150.45,0,0,0,17.25-20.13" transform="translate(-7.52 -3)"/></svg>