<svg id="Layer_1" data-name="Layer 1" xmlns="http://www.w3.org/2000/svg" viewBox="0 0 413.08 358.49"><defs><style>.cls-1,.cls-13{fill:none;}.cls-2{fill:#fefdfd;}.cls-3{fill:#f16561;}.cls-4{fill:#eb1622;}.cls-5{fill:#960f17;}.cls-6{fill:#950f17;}.cls-7{fill:#f26561;}.cls-8{fill:#970f17;}.cls-9{fill:#eb1723;}.cls-10{fill:#f26763;}.cls-11{fill:#f26662;}.cls-12{fill:#e95e5b;}.cls-13{stroke:#eb1723;stroke-linecap:round;stroke-linejoin:round;stroke-width:0;}.cls-14{fill:#960e16;}</style></defs><title>ruby-logo</title><path class="cls-1" d="M88.06,361.49l0,.08,0-.08Z" transform="translate(-36.54 -63.18)"/><path class="cls-1" d="M87.37,358h0c0-.16-.06-.33-.07-.49C87.31,357.65,87.35,357.81,87.37,358Z" transform="translate(-36.54 -63.18)"/><path class="cls-2" d="M36.54,63.18V421.67H345.17l-2.63-1q-15.69-3.6-31.39-7.21L187.34,384.7l-86-19.95c-4.46-1-8.9-2.12-13.35-3.19h0l-.27.39,0-.49c-20.15-5.85-36.44-16.7-46.42-35.76A40.41,40.41,0,0,1,37,308.34c-.43-10.39,1.38-20.54,3.62-30.62.65-2.93,1.51-5.81,2.27-8.71,1.08-3.92,2-7.87,3.25-11.74,5.86-18.53,12.74-36.7,20.17-54.65,2-4.77,5.09-9.08,7.7-13.59.06-.1.23-.12.54-.27.06.45.15.82.17,1.21q.5,12.64,1,25.28.41,10.28.85,20.56l.82.11,92.25,6.21.12-.05L295,182c.26-.12.52-.23.78-.34l.79-.32L345,109.48c1.44-2.13,2.91-4.25,4.36-6.37.42-1-.25-1.76-.76-2.53l-14.52-22Q330,72.27,325.87,66c-.33-.51-.6-1.06-1-1.8a50.41,50.41,0,0,1,12.23,2.09q18.34,5.62,36.7,11.13c10.68,3.19,21.4,6.25,31.8,10.32,1.11.43,2.15,1.06,3.22,1.59,12.8,5.12,23.8,12.66,32.14,23.79,4,5.31,5.67,11.5,6.93,17.85,2.85,14.37,1,28.36-3.71,42.05-1.71,5-4,9.81-6,14.7-.68,1.64-1.48,3.24-2.22,4.86l-.43.93,0,0c-1.39,3.75-2.71,7.53-4.17,11.25Q399.7,285.94,368,367.14l-20.69,53c-.1.26-.25.51-.37.77l0,.76H449.62V63.18ZM329.16,77.67c6.46,7,8.67,15.33,7.61,24.62-1.19,10.5-5.68,19.74-11.27,28.51-7.85,12.3-17.7,22.87-28.51,32.56-23.54,21.08-50.25,37.18-79.11,49.82a262.92,262.92,0,0,1-57,17.89,169.7,169.7,0,0,1-29,2.84c-9.57,0-19-.83-28.15-4-6-2.07-11.58-5-16.08-9.61-6.2-6.4-8.74-14.13-8.24-22.93.56-9.76,4.27-18.49,9.1-26.79,7.23-12.43,16.61-23.13,27.07-32.91,25.42-23.76,54.75-41.38,86.66-54.9a259.7,259.7,0,0,1,47-15c13.41-2.87,27-4.68,40.71-4.08,8.9.39,17.68,1.67,26,5.11A37,37,0,0,1,329.16,77.67Z" transform="translate(-36.54 -63.18)"/><path class="cls-3" d="M346.88,420.54c-.77.62-1-.13-1.26-.56q-2.59-4.06-5.14-8.14-6.7-10.69-13.39-21.39Q317,374.23,306.85,358q-8.45-13.51-16.94-27c-.91-1.45-1.8-2.91-2.78-4.31a5.38,5.38,0,0,0-1.28-1c-6.09,3-12.1,6.16-18.28,9s-12.69,5.53-19.18,7.9c-9.23,3.37-18.56,6.5-27.91,9.52-5.62,1.82-11.35,3.28-17,4.83-3.29.89-6.63,1.63-9.95,2.44-.66.16-1.32.37-2.4.67,3.21,1.3,6,2.47,8.87,3.59l42.75,16.92,42.15,16.68c10.21,4,20.4,8.12,30.6,12.16q12.43,4.92,24.88,9.77c.73.29,1.47.55,2.18.88.09,0,0,.41,0,.62l2.63,1h1.72l0-.76A.39.39,0,0,0,346.88,420.54Z" transform="translate(-36.54 -63.18)"/><path class="cls-4" d="M289.85,63.7c-13.75-.6-27.3,1.21-40.71,4.08a259.7,259.7,0,0,0-47,15c-31.91,13.52-61.23,31.15-86.66,54.9-10.46,9.78-19.84,20.48-27.07,32.91-4.83,8.3-8.54,17-9.1,26.79-.51,8.8,2,16.53,8.24,22.93,4.5,4.64,10,7.54,16.08,9.61,9.12,3.13,18.58,4,28.15,4a169.7,169.7,0,0,0,29-2.84,262.92,262.92,0,0,0,57-17.89c28.86-12.64,55.57-28.74,79.11-49.82,10.82-9.69,20.67-20.26,28.51-32.56,5.59-8.77,10.08-18,11.27-28.51,1.06-9.29-1.15-17.64-7.61-24.62a37,37,0,0,0-13.31-8.86C307.53,65.37,298.75,64.09,289.85,63.7Z" transform="translate(-36.54 -63.18)"/><path class="cls-5" d="M342.51,420c-.71-.33-1.45-.6-2.18-.88q-12.44-4.88-24.88-9.77c-10.21-4-20.4-8.12-30.6-12.16L242.7,380.52,200,363.6c-2.84-1.12-5.66-2.29-8.87-3.59,1.08-.31,1.73-.51,2.4-.67,3.32-.81,6.65-1.55,9.95-2.44,5.7-1.55,11.43-3,17-4.83,9.35-3,18.68-6.15,27.91-9.52,6.49-2.37,12.88-5.06,19.18-7.9s12.19-6,18.28-9V325c-4.07-2.87-8.15-5.74-12.2-8.63Q259.3,306.19,245,296c-6.44-4.57-13-9-19.39-13.62-8.87-6.31-17.69-12.7-26.56-19-6.32-4.5-12.67-9-19-13.42-3.2-2.25-6.41-4.49-9.59-6.78a1.59,1.59,0,0,1-.44-.65l-81.9,119,0,.08c4.45,1.06,8.89,2.15,13.35,3.19l86,19.95,123.81,28.73q15.69,3.64,31.39,7.21C342.53,420.42,342.6,420.05,342.51,420Z" transform="translate(-36.54 -63.18)"/><path class="cls-5" d="M169.76,242.08l-.12.05h.16Z" transform="translate(-36.54 -63.18)"/><path class="cls-4" d="M170.17,242.17l-.21.31a1.59,1.59,0,0,0,.44.65c3.18,2.28,6.39,4.52,9.59,6.78,6.34,4.47,12.7,8.92,19,13.42,8.87,6.32,17.69,12.71,26.56,19,6.44,4.58,13,9,19.39,13.62q14.37,10.19,28.69,20.45c4.06,2.89,8.14,5.75,12.2,8.63a13.86,13.86,0,0,0,.81-2.56c.24-2,.34-4,.45-6,.18-3.2.25-6.41.48-9.6.36-5,.82-9.91,1.22-14.86.16-2,.33-4,.44-6,.18-3.2.25-6.41.49-9.6.35-4.67.81-9.33,1.21-14q.27-3.19.46-6.38c.17-3,.27-6,.48-9s.54-5.79.78-8.69c.18-2.13.33-4.25.46-6.38.17-2.77.27-5.55.47-8.32.24-3.47.55-6.94.82-10.41.16-2,.32-4,.44-6,.18-3.2.25-6.41.49-9.6.35-4.67.81-9.33,1.21-14,.07-.78.07-1.57.11-2.36l-.1-.11-.79.32c-.26.11-.53.21-.78.34L169.76,242.08l0,.06Z" transform="translate(-36.54 -63.18)"/><path class="cls-6" d="M379.22,96l-27.28,5.87c-.56.12-1.1.29-1.65.44a19.43,19.43,0,0,0,1.25,2.63c4.06,6.1,8.17,12.16,12.25,18.24q13.65,20.39,27.29,40.79l31.09,46.46c.32.47.58,1,.87,1.47h.37a8.71,8.71,0,0,0,1.3-1.34c3.41-5.45,6.78-10.93,10.18-16.39a3.9,3.9,0,0,1,.67-.67l.43-.93c.74-1.62,1.54-3.22,2.22-4.86,2-4.88,4.28-9.7,6-14.7,4.68-13.69,6.56-27.68,3.71-42.05-1.26-6.36-2.95-12.55-6.93-17.85-8.34-11.13-19.34-18.68-32.14-23.79-2.16.59-4.29,1.27-6.47,1.75C394.65,92.76,386.93,94.37,379.22,96Z" transform="translate(-36.54 -63.18)"/><path class="cls-4" d="M296.65,181.44c2.21.46,4.44.84,6.63,1.38,10,2.47,20.07,5,30.11,7.48,7.5,1.85,15,3.64,22.51,5.48,7.7,1.89,15.4,3.83,23.1,5.72,7.43,1.82,14.88,3.58,22.31,5.39,6.6,1.62,13.19,3.29,19.8,4.91a10.66,10.66,0,0,0,1.92.12c-.29-.49-.55-1-.87-1.47L391.07,164q-13.64-20.39-27.29-40.79c-4.08-6.09-8.19-12.14-12.25-18.24a19.43,19.43,0,0,1-1.25-2.63l-.9.78c-1.45,2.12-2.92,4.24-4.36,6.37l-48.49,71.86Z" transform="translate(-36.54 -63.18)"/><path class="cls-7" d="M87.37,358l-.18-2c0,.5.06,1,.11,1.49C87.31,357.65,87.35,357.81,87.37,358Z" transform="translate(-36.54 -63.18)"/><path class="cls-8" d="M87.3,357.49c-.05-.5-.08-1-.11-1.49L76.08,236.71a8.34,8.34,0,0,0-.71.61L44.53,267.68c-.5.49-1.08.89-1.62,1.34-.76,2.9-1.62,5.78-2.27,8.71C38.4,287.8,36.59,297.95,37,308.34a40.41,40.41,0,0,0,4.26,17.37c10,19.06,26.27,29.91,46.42,35.76l-.33-3.5C87.35,357.81,87.31,357.65,87.3,357.49Z" transform="translate(-36.54 -63.18)"/><path class="cls-9" d="M434.87,194.18c-3.4,5.46-6.77,10.94-10.18,16.39a8.71,8.71,0,0,1-1.3,1.34c-1.29,1.94-2.45,4-3.91,5.78-4.3,5.31-8.72,10.53-13.11,15.77a246,246,0,0,1-18.72,19.47c-4.73,4.53-9.78,8.73-14.68,13.09a31.35,31.35,0,0,0-2.59,2.57,3.09,3.09,0,0,0-.69,1.49q-1.1,6.82-2.12,13.65c-.63,4.28-1.16,8.57-1.81,12.85s-1.39,8.24-2,12.37c-.52,3.36-.91,6.75-1.4,10.11-.45,3.08-1,6.16-1.44,9.24q-.78,5-1.55,10.08c-.49,3.22-1,6.45-1.46,9.67s-1,6.58-1.54,9.87-.89,6.46-1.38,9.69-1.09,6.71-1.63,10.06c-.7,4.33-1.42,8.67-2.07,13-.51,3.37-.88,6.75-1.39,10.12-.62,4.13-1.32,8.25-2,12.38-.38,2.45-.7,4.91-1,7.37a.39.39,0,0,1,0,.37c.12-.26.27-.51.37-.77l20.69-53q31.72-81.2,63.43-162.41c1.45-3.72,2.78-7.5,4.17-11.25l0,0v0A3.9,3.9,0,0,0,434.87,194.18Z" transform="translate(-36.54 -63.18)"/><path class="cls-10" d="M351.94,101.89,379.22,96c7.71-1.65,15.42-3.26,23.12-4.95,2.18-.48,4.32-1.16,6.47-1.75-1.07-.53-2.11-1.16-3.22-1.59-10.4-4.06-21.12-7.12-31.8-10.32q-18.37-5.49-36.7-11.13a50.41,50.41,0,0,0-12.23-2.09c.41.73.67,1.29,1,1.8q4.11,6.28,8.25,12.55l14.52,22c.51.77,1.18,1.49.76,2.53l.9-.78C350.84,102.18,351.39,102,351.94,101.89Z" transform="translate(-36.54 -63.18)"/><path class="cls-10" d="M75.37,237.31a8.34,8.34,0,0,1,.71-.61l-.08-.88.57,0v-.05q-.43-10.28-.85-20.56-.5-12.64-1-25.28c0-.38-.1-.76-.17-1.21-.31.15-.49.18-.54.27-2.6,4.51-5.72,8.82-7.7,13.59C58.9,220.57,52,238.74,46.16,257.27,44.94,261.14,44,265.1,42.91,269c.54-.44,1.12-.85,1.62-1.34Z" transform="translate(-36.54 -63.18)"/><path class="cls-11" d="M77.39,235.92l-.82-.11v.05Z" transform="translate(-36.54 -63.18)"/><path class="cls-12" d="M88,361.57h0l0-.08Z" transform="translate(-36.54 -63.18)"/><path class="cls-13" d="M436,192.58l-.43.93" transform="translate(-36.54 -63.18)"/><path class="cls-13" d="M435.53,193.52v0" transform="translate(-36.54 -63.18)"/><path class="cls-14" d="M349.88,400.79c.5-3.37.88-6.75,1.39-10.12.65-4.34,1.38-8.67,2.07-13,.54-3.36,1.12-6.7,1.63-10.06s.9-6.46,1.38-9.69,1-6.58,1.54-9.87,1-6.45,1.46-9.67,1-6.72,1.55-10.08c.48-3.08,1-6.16,1.44-9.24.49-3.37.89-6.75,1.4-10.11.63-4.13,1.39-8.24,2-12.37s1.18-8.57,1.81-12.85q1-6.83,2.12-13.65a3.09,3.09,0,0,1,.69-1.49A31.35,31.35,0,0,1,373,266c4.89-4.36,9.95-8.56,14.68-13.09a246,246,0,0,0,18.72-19.47c4.39-5.24,8.8-10.46,13.11-15.77,1.46-1.8,2.61-3.85,3.91-5.78H423a10.66,10.66,0,0,1-1.92-.12c-6.6-1.62-13.19-3.29-19.8-4.91-7.43-1.82-14.88-3.58-22.31-5.39-7.71-1.89-15.4-3.82-23.1-5.72-7.5-1.84-15-3.63-22.51-5.48-10-2.48-20.07-5-30.11-7.48-2.19-.54-4.42-.92-6.63-1.38,0,.79,0,1.57-.11,2.36-.4,4.67-.86,9.33-1.21,14-.24,3.2-.31,6.4-.49,9.6-.11,2-.28,4-.44,6-.27,3.47-.58,6.94-.82,10.41-.19,2.77-.3,5.54-.47,8.32-.13,2.13-.28,4.26-.46,6.38-.25,2.9-.57,5.79-.78,8.69s-.3,6-.48,9q-.19,3.19-.46,6.38c-.39,4.67-.86,9.33-1.21,14-.24,3.2-.31,6.4-.49,9.6-.11,2-.28,4-.44,6-.41,5-.87,9.9-1.22,14.86-.23,3.2-.31,6.4-.48,9.6-.11,2-.21,4-.45,6a13.86,13.86,0,0,1-.81,2.56v.67a5.38,5.38,0,0,1,1.28,1c1,1.4,1.87,2.87,2.78,4.31q8.48,13.49,16.94,27Q317,374.21,327.1,390.46q6.68,10.7,13.39,21.39,2.56,4.08,5.14,8.14c.27.43.48,1.18,1.26.56.35-2.46.67-4.91,1-7.37C348.56,409,349.26,404.93,349.88,400.79Z" transform="translate(-36.54 -63.18)"/><polygon class="cls-11" points="51.53 298.31 133.42 179.29 133.63 178.99 133.26 178.96 133.1 178.95 40.85 172.74 40.03 172.69 39.46 172.65 39.55 173.53 50.65 292.81 50.83 294.8 50.83 294.8 51.16 298.29 51.2 298.78 51.47 298.39 51.53 298.31 51.53 298.31"/></svg>