<svg id="Layer_1" data-name="Layer 1" xmlns="http://www.w3.org/2000/svg" xmlns:xlink="http://www.w3.org/1999/xlink" viewBox="0 0 584 400"><defs><style>.cls-1{fill:none;}.cls-2{fill:#fff;}.cls-3{clip-path:url(#clip-path);}.cls-4{fill:#f3d434;}.cls-5{fill:#75a8da;}</style><clipPath id="clip-path" transform="translate(92)"><rect class="cls-1" width="400" height="400"/></clipPath></defs><title>logoSquare</title><rect class="cls-2" x="92" y="134" width="400" height="132"/><g class="cls-3"><circle class="cls-4" cx="291.94" cy="200" r="172.38"/><rect class="cls-5" y="266" width="584" height="134"/><rect class="cls-5" width="584" height="134"/><path id="path1" d="M81.16,323C74.95,321.55,66,313.75,56,301.2c-20.22-25.47-31.21-54-34.44-89.6a248.22,248.22,0,0,1,0-30.49c3-29.87,13.41-55.6,32.59-80.21C60,93.36,69.77,83.48,74.43,80.34c6.6-4.46,10.75-4.82,14.73-1.28,1.63,1.44,2,2.11,2.21,4,.39,3.48-1.39,6.2-9.69,14.78-11.6,12-17,18.65-22.88,28.52-13.46,22.4-19.22,46-18.4,75.23.44,15.59,2.11,27.09,5.79,39.88a127.28,127.28,0,0,0,13.25,30.92c6,10.17,11,16.6,21.06,26.95,8.82,9.08,11,12.23,11,15.85A8.29,8.29,0,0,1,85.39,323a5.85,5.85,0,0,1-4.23,0Zm232.77.14c-1.88-.4-5.23-4-5.61-6-.61-3.27,1.33-6.18,10.39-15.56,4.46-4.62,9.94-10.69,12.19-13.49,16.43-20.49,25.56-43.29,28-69.92.75-8.21.36-29.36-.68-37.29A137,137,0,0,0,345,136.37c-6.71-13.68-13.65-23.38-25.37-35.46-7.87-8.11-10.19-11.08-11-14s-.22-5,1.95-7.49c3-3.38,6.37-3.68,11.68-1,6.43,3.2,14.76,11.55,24.44,24.48,19.46,26,29.5,54.66,31.91,91A152.16,152.16,0,0,1,357.46,282c-10.81,17.88-27.31,36.2-36.09,40.09a14.41,14.41,0,0,1-7.44,1.12ZM119.67,304.32a10.15,10.15,0,0,1-7-12.13,11.09,11.09,0,0,1,7.26-7.43c3.22-.81,169.55-.81,172.76,0a10.8,10.8,0,0,1,7.24,7.55A10.28,10.28,0,0,1,295,303.39l-2,1.16-86,.08c-47.3,0-86.6-.1-87.32-.32Zm65.52-40.43c-16-5.81-29.26-17.13-36.06-30.73a57.85,57.85,0,0,1-6-24.92c0-11.09,4.34-21.66,17.55-42.78,9.84-15.73,11.52-18.59,14.41-24.63,3.85-8,5.12-12.81,5.2-19.56.08-6.45-.89-10.27-3.86-15.27-2.11-3.55-6.85-8.9-8.77-9.89-3.14-1.62-3.79-3.83-1.56-5.29,3.52-2.31,13.15-.84,22,3.35q15,7.11,22.19,20.48c3.7,6.88,5.2,12.16,7.71,27.23,2.79,16.72,5.55,22,11.14,21.39,3-.34,4.81-1.46,6.05-3.68,2-3.53,1.13-8.37-2.88-16.37-3.28-6.54-3.08-8.51.77-7.5,2,.53,8.46,5.81,12.94,10.57,11.21,11.91,16.78,22.73,19.46,37.76,1.41,7.88,1.52,21,.25,27.79a64.14,64.14,0,0,1-9.5,23.71c-5.17,7.76-15.94,17.57-23.78,21.66-3.54,1.84-4.77,2-6.5.59-2.16-1.7-1.7-2.88,3.07-7.94,7.16-7.61,10.82-13,12.94-19.14,3.27-9.45,1.64-22.62-3.84-31-2.27-3.48-5.6-6.54-7.1-6.54-.82,0-.69,1.09.84,6.68a27.48,27.48,0,0,1,1,5.32c0,5.11-7.22,8.82-13.58,7-5.17-1.5-7.45-6.19-6.76-13.91.21-2.39.4-6.72.42-9.64,0-5.14,0-5.4-1.64-8.6-3.17-6.25-10.5-12.69-14.45-12.69-1.7,0-1.84.1-1.84,1.35a3.65,3.65,0,0,0,1.24,2.52c4.09,3.82,4.86,11.64,1.82,18.54-1.88,4.27-4,6.68-11.21,12.82-9.5,8.07-12.56,11.91-14.46,18.14-.88,2.88-1,4.06-.72,9.34.42,8.87,2.22,14.76,6.45,21a24.38,24.38,0,0,0,12.21,9.74c2.48.93,2.76,1.17,2.76,2.42a2.38,2.38,0,0,1-2.72,2.35,35.25,35.25,0,0,1-5.18-1.59Z" transform="translate(92)"/></g></svg>