<svg id="Layer_1" data-name="Layer 1" xmlns="http://www.w3.org/2000/svg" viewBox="0 0 455.9 455.8"><defs><style>.cls-1{fill:#0b465d;}</style></defs><title>mumuki-logo-2</title><path class="cls-1" d="M165.51,88.56A829.53,829.53,0,0,0,82.86,306.1c-5.93,26.55-9.6,53.56-14.31,80.39-.09.38-.19.85-.56,2.07-4.14-5.37-8.19-10.07-11.77-15.06-21.84-30.59-35.3-64.67-40.85-101.95-.94-6.31-1.51-12.71-2.26-19.11V228.91c.94-7.15,1.69-14.21,2.82-21.37A227.54,227.54,0,0,1,188,19.37c11.2-2.64,22.59-4,34-6.12.19.38.28.85.47,1.22-3.29,3.11-6.59,6.12-9.7,9.23C193.56,42.9,178.4,64.93,165.51,88.56Z" transform="translate(-13.1 -13.25)"/><path class="cls-1" d="M422.5,378.78A227.21,227.21,0,0,1,256.35,468.2a47.69,47.69,0,0,0-5.08.85H233.38c-8.38-.94-16.76-1.69-25.13-2.82a215.27,215.27,0,0,1-74.56-24.48c-9.6-5.18-18.73-11.39-28.15-17.13a25.08,25.08,0,0,1,.85-2.73c6.5-15.44,13.18-30.78,19.49-46.31,2.26-5.55,5.46-8.28,11.58-9.23,36.34-5.55,72.67-12,109.1-17.23,29.75-4.24,59.68-7.34,89.62-10.83,14.31-1.69,28.71-2.92,43-4.42,8.57-.94,8.85-.47,12,7.44a128.2,128.2,0,0,0,9.51,20.24A41.27,41.27,0,0,0,422.5,378.78Z" transform="translate(-13.1 -13.25)"/><path class="cls-1" d="M468.62,253.58h0c-.28,4.33-.66,8.66-1.13,13.08-.28,2.64-.66,5.27-1,7.81-.09.85-.28,1.79-.38,2.64a236.42,236.42,0,0,1-5.27,23.63c-.47,1.79-1,3.48-1.51,5.27l-2.54,7.91c-.94,2.64-1.88,5.27-2.92,7.81-.28.85-.66,1.69-1,2.64h0V311.75c.09-24.85-4.89-48.86-11.77-72.58-5.74-19.77-12.43-39.16-24.48-56.1-6.68-9.32-14.5-17.42-26.36-19.86-17.7-3.67-32.29,7-34.55,24.95-1.6,12.9,1.69,25.32,4.52,37.56,4.33,19,9.7,37.94,14.69,56.86,2.07,8,1.51,8.75-6.87,9.23-70.79,4-141,13-210.2,28.71-2.45.56-5,.28-7.53.38a42.8,42.8,0,0,1,1.6-7.06C176,253.48,201.37,193.71,231,135.72c10.54-20.62,21.75-40.95,32.19-61.66,4.33-8.47,7.72-17.42,11.3-26.26,4.52-11,5.65-21.84-3.11-32.48,51.3,6.21,96.68,30.12,131,64.86,1.22,1.22,2.35,2.45,3.48,3.67a215.75,215.75,0,0,1,14.78,17.23h0c1.51,2,3,4,4.52,6h0c.94,1.32,2,2.73,2.92,4.14h0c.94,1.41,1.88,2.73,2.82,4.14h0c2.35,3.48,4.52,7.06,6.68,10.73h0c.85,1.41,1.69,2.92,2.45,4.33h0c.85,1.51,1.6,2.92,2.45,4.42q2.4,4.52,4.52,9c1.13,2.26,2.17,4.61,3.11,6.87,2.73,6.21,5.08,12.52,7.25,18.92A224,224,0,0,1,468.62,253.58Z" transform="translate(-13.1 -13.25)"/></svg>