<?xml version="1.0" encoding="utf-8"?>
<!-- Generator: Adobe Illustrator 21.0.0, SVG Export Plug-In . SVG Version: 6.00 Build 0)  -->
<svg version="1.1" id="Layer_1" xmlns="http://www.w3.org/2000/svg" xmlns:xlink="http://www.w3.org/1999/xlink" x="0px" y="0px"
	 viewBox="0 0 340.7 114.5" style="enable-background:new 0 0 340.7 114.5;" xml:space="preserve">
<style type="text/css">
	.st0{fill:#F0F0F0;}
	.st1{fill:#51FFE1;}
	.st2{fill:none;stroke:#000000;stroke-width:3;stroke-miterlimit:10;}
	.st3{fill:none;stroke:#000000;stroke-width:2;stroke-miterlimit:10;}
	.st4{fill:#242352;}
	.st5{fill:none;stroke:#242352;stroke-width:3;stroke-miterlimit:10;}
	.st6{fill:none;stroke:#242352;stroke-width:2;stroke-miterlimit:10;}
	.st7{fill:none;stroke:#242352;stroke-width:1.0881;stroke-miterlimit:10;}
	.st8{fill:#C9E1F1;}
	.st9{fill:#FFEF1C;}
	.st10{fill:#9763F8;}
	.st11{fill:none;stroke:#51FFE1;stroke-width:3;stroke-miterlimit:10;}
	.st12{fill:none;stroke:#51FFE1;stroke-width:2;stroke-miterlimit:10;}
	.st13{fill:none;stroke:#242352;stroke-width:3.4502;stroke-miterlimit:10;}
	.st14{fill:none;stroke:#242352;stroke-width:2.3001;stroke-miterlimit:10;}
	.st15{fill:url(#SVGID_3_);}
	.st16{fill:none;stroke:#9763F8;stroke-width:2;stroke-miterlimit:10;}
	.st17{fill:url(#SVGID_4_);}
	.st18{fill:none;stroke:#9763F8;stroke-width:3;stroke-miterlimit:10;}
	.st19{fill:#EDEDED;}
	.st20{fill:none;stroke:#EDEDED;stroke-width:3;stroke-miterlimit:10;}
</style>
<g>
	<rect y="16.8" class="st1" width="63.8" height="63.8"/>
	<rect x="178.9" y="77.9" class="st1" width="150.9" height="33.9"/>
	<g>
		<path class="st4" d="M107.5,60.8h-17c-0.7,0-1.2-0.2-1.6-0.6c-0.4-0.4-0.6-1-0.6-1.6V12.1c0-1.6,0.7-2.4,2.2-2.4h17
			c3.4,0,6,1.1,7.9,3.3c1.9,2.2,2.8,5.1,2.8,8.6V49c0,3.8-0.9,6.7-2.8,8.8C113.6,59.8,111,60.8,107.5,60.8z M113,21.6
			c0-4.2-1.8-6.3-5.4-6.3H93.9v40h13.7c3.6,0,5.4-2.2,5.4-6.5V21.6z"/>
		<path class="st4" d="M152.4,60.8h-20.2c-0.7,0-1.2-0.2-1.6-0.6c-0.4-0.4-0.6-1-0.6-1.6V12.1c0-0.7,0.2-1.2,0.5-1.7
			c0.3-0.5,0.9-0.7,1.6-0.7h20.2c0.7,0,1.2,0.2,1.6,0.6c0.4,0.4,0.6,1,0.6,1.6v1c0,0.8-0.3,1.3-0.8,1.7s-1,0.6-1.4,0.6h-17.2V32
			h15.6c0.4,0,0.9,0.2,1.4,0.6c0.5,0.4,0.8,1,0.8,1.8v0.9c0,0.7-0.2,1.2-0.6,1.6c-0.4,0.4-0.9,0.6-1.6,0.6h-15.6v17.7h17.2
			c0.7,0,1.2,0.2,1.6,0.6c0.4,0.4,0.6,1,0.6,1.6v1c0,0.8-0.3,1.3-0.8,1.7S152.8,60.8,152.4,60.8z"/>
		<path class="st4" d="M181.6,59.1c-0.3,0.4-0.5,0.8-0.8,1.2c-0.3,0.4-0.7,0.6-1.3,0.6h-1.8c-0.9,0-1.6-0.5-2-1.4
			c-0.2-0.3-0.3-0.5-0.3-0.6L162,12.5c-0.2-0.4-0.1-1,0.1-1.7c0.2-0.7,0.8-1.1,1.8-1.1h1.1c0.8,0,1.5,0.5,1.9,1.4
			c0.2,0.3,0.3,0.5,0.3,0.6l11.4,38.3l11.3-38.3c0.2-0.3,0.3-0.5,0.3-0.7c0-0.2,0.1-0.4,0.3-0.6c0.2-0.2,0.4-0.3,0.6-0.5
			c0.2-0.2,0.5-0.3,0.9-0.3h1.3c0.9,0,1.5,0.4,1.7,1.1c0.2,0.7,0.2,1.3,0.1,1.7L181.6,59.1z"/>
		<path class="st4" d="M245.4,60.8h-17c-0.7,0-1.2-0.2-1.6-0.6c-0.4-0.4-0.6-1-0.6-1.6V12.1c0-1.6,0.7-2.4,2.2-2.4h17
			c3.4,0,6,1.1,7.9,3.3c1.9,2.2,2.8,5.1,2.8,8.6V49c0,3.8-0.9,6.7-2.8,8.8C251.5,59.8,248.9,60.8,245.4,60.8z M250.8,21.6
			c0-4.2-1.8-6.3-5.4-6.3h-13.7v40h13.7c3.6,0,5.4-2.2,5.4-6.5V21.6z"/>
		<path class="st4" d="M298.2,60.8H297c-0.7,0-1.2-0.2-1.5-0.7c-0.3-0.5-0.6-0.9-0.8-1.5l-3.7-11.3h-17.5L269.7,59
			c-0.2,0.5-0.4,0.9-0.8,1.3s-0.9,0.6-1.5,0.6h-0.9c-0.8,0-1.4-0.3-1.8-1c-0.3-0.7-0.4-1.3-0.3-1.9l14.7-46.2
			c0.2-0.2,0.3-0.4,0.4-0.6c0.1-0.3,0.2-0.5,0.4-0.6c0.3-0.5,0.8-0.8,1.5-0.8h1.6c1.2,0,2,0.6,2.4,1.9l14.7,46.3
			c0.2,0.6,0.1,1.2-0.3,1.9C299.6,60.5,299,60.8,298.2,60.8z M282.2,19.1c-1.1,4-2.3,8.1-3.5,12.3c-1.3,4.1-2.3,7.5-3,10.1h13.4
			L282.2,19.1z"/>
		<path class="st4" d="M324.1,41.2v17.3c0,0.7-0.2,1.2-0.6,1.6c-0.4,0.4-1,0.6-1.6,0.6h-0.9c-0.8,0-1.3-0.3-1.6-0.8
			c-0.3-0.5-0.5-1-0.5-1.5V41.2L305.2,13c-0.3-0.5-0.3-1.2-0.2-2c0.1-0.8,0.8-1.3,2-1.3h1.3c0.7,0,1.2,0.2,1.5,0.6
			c0.3,0.4,0.6,0.7,0.9,1.1l10.8,23l10.9-23c0.2-0.4,0.4-0.8,0.8-1c0.3-0.4,0.8-0.6,1.6-0.6h1c1.2,0,1.8,0.4,2,1.1
			c0.1,0.8,0.1,1.4-0.1,2L324.1,41.2z"/>
	</g>
	<g>
		<path class="st4" d="M210.2,97.7h-0.5c-0.2,0-0.4-0.1-0.5-0.2c-0.1-0.1-0.2-0.3-0.3-0.5l-1.6-4.9H200l-1.7,5
			c-0.2,0.4-0.4,0.6-0.7,0.6h-0.4c-0.2,0-0.4-0.1-0.5-0.3c-0.1-0.2-0.1-0.4-0.1-0.6l6-19.3l0.2-0.3c0,0,0.1-0.1,0.1-0.1
			c0,0,0,0,0.1-0.1c0.1-0.2,0.3-0.3,0.5-0.3h0.7c0.3,0,0.6,0.2,0.8,0.6l6,19.4c0.1,0.2,0,0.4-0.1,0.6
			C210.6,97.6,210.4,97.7,210.2,97.7z M203.6,79.6c-0.6,2.1-1.1,4.1-1.6,5.9c-0.5,1.8-1,3.4-1.4,4.6h6.1L203.6,79.6z"/>
		<path class="st4" d="M225.2,97.7h-0.6c-0.3,0-0.6-0.1-0.7-0.4l-3.3-8h-4.6V97c0,0.5-0.3,0.7-0.8,0.7H215c-0.2,0-0.3,0-0.5-0.1
			c-0.2-0.1-0.2-0.3-0.2-0.6V77.5c0-0.5,0.2-0.7,0.7-0.7h6.2c1.3,0,2.4,0.4,3.1,1.2c0.7,0.8,1.1,2,1.1,3.5v3c0,1.1-0.2,2.1-0.7,2.8
			c-0.5,0.7-1.2,1.4-2.3,1.8l3.3,7.5c0,0.1,0.1,0.3,0.1,0.6C225.8,97.6,225.6,97.7,225.2,97.7z M223.7,81.5c0-2-0.8-2.9-2.5-2.9
			h-5.1v8.8h5.1c1.7,0,2.5-1,2.5-2.9V81.5z"/>
		<path class="st4" d="M237,97.7h-3.2c-1.3,0-2.3-0.4-3-1.2c-0.7-0.8-1.1-2-1.1-3.5V81.5c0-1.5,0.4-2.6,1.1-3.5
			c0.7-0.8,1.7-1.3,3-1.3h3.2c1.3,0,2.3,0.4,3.1,1.3c0.7,0.8,1.1,2,1.1,3.5v1.4c0,0.6-0.2,0.9-0.7,0.9h-0.4c-0.2,0-0.4-0.1-0.5-0.3
			c-0.1-0.2-0.1-0.4-0.1-0.6v-1.4c0-1.9-0.8-2.9-2.4-2.9h-3.2c-1.6,0-2.4,1-2.4,2.9v11.3c0,2,0.8,2.9,2.4,2.9h3.2
			c1.6,0,2.4-1,2.4-2.9v-4.4H236c-0.4,0-0.6-0.2-0.6-0.7v-0.4c0-0.2,0.1-0.3,0.2-0.5c0.1-0.2,0.2-0.3,0.4-0.3h4.2c0.7,0,1,0.4,1,1.1
			v5.2c0,1.6-0.4,2.7-1.1,3.5C239.4,97.3,238.3,97.7,237,97.7z"/>
		<path class="st4" d="M255,97.7h-8.3c-0.4,0-0.6-0.2-0.6-0.7V77.6c0-0.5,0.2-0.8,0.6-0.8h8.3c0.4,0,0.7,0.2,0.7,0.7v0.4
			c0,0.2-0.1,0.4-0.2,0.5c-0.2,0.1-0.3,0.2-0.4,0.2h-7.2v7.5h6.6c0.1,0,0.3,0.1,0.4,0.2c0.2,0.1,0.2,0.3,0.2,0.6v0.4
			c0,0.5-0.2,0.7-0.7,0.7h-6.6v7.9h7.2c0.4,0,0.7,0.2,0.7,0.7V97c0,0.2-0.1,0.4-0.2,0.5C255.3,97.6,255.1,97.7,255,97.7z"/>
		<path class="st4" d="M271.7,97.7h-0.3c-0.3,0-0.5-0.2-0.7-0.5L262.1,81V97c0,0.2-0.1,0.3-0.2,0.5c-0.1,0.2-0.3,0.2-0.5,0.2H261
			c-0.5,0-0.7-0.2-0.7-0.7V77.6c0-0.5,0.2-0.8,0.7-0.8h0.4c0.3,0,0.5,0.1,0.5,0.3l8.8,16.3V77.6c0-0.2,0-0.3,0.1-0.5
			c0.1-0.2,0.3-0.3,0.5-0.3h0.4c0.2,0,0.4,0.1,0.5,0.3c0.1,0.2,0.2,0.3,0.2,0.5V97c0,0.2-0.1,0.3-0.2,0.5
			C272.1,97.6,271.9,97.7,271.7,97.7z"/>
		<path class="st4" d="M286.5,78.6h-4.1V97c0,0.2-0.1,0.3-0.2,0.5c-0.1,0.2-0.3,0.2-0.5,0.2h-0.3c-0.2,0-0.4-0.1-0.5-0.2
			c-0.1-0.2-0.2-0.3-0.2-0.5V78.6h-4.1c-0.2,0-0.3-0.1-0.5-0.2c-0.1-0.1-0.2-0.3-0.2-0.6v-0.4c0-0.5,0.2-0.7,0.7-0.7h9.9
			c0.4,0,0.7,0.2,0.7,0.7v0.4C287.2,78.4,287,78.6,286.5,78.6z"/>
		<path class="st4" d="M291.2,97.7h-0.4c-0.2,0-0.3-0.1-0.4-0.3c-0.1-0.2-0.2-0.3-0.2-0.5V77.6c0-0.5,0.2-0.8,0.6-0.8h0.4
			c0.4,0,0.7,0.3,0.7,0.8v19.4C291.9,97.4,291.7,97.7,291.2,97.7z"/>
		<path class="st4" d="M307.9,97.7h-0.3c-0.3,0-0.5-0.2-0.7-0.5L298.3,81V97c0,0.2-0.1,0.3-0.2,0.5c-0.1,0.2-0.3,0.2-0.5,0.2h-0.4
			c-0.5,0-0.7-0.2-0.7-0.7V77.6c0-0.5,0.2-0.8,0.7-0.8h0.4c0.3,0,0.5,0.1,0.5,0.3l8.8,16.3V77.6c0-0.2,0-0.3,0.1-0.5
			c0.1-0.2,0.2-0.3,0.5-0.3h0.4c0.2,0,0.4,0.1,0.5,0.3c0.1,0.2,0.2,0.3,0.2,0.5V97c0,0.2-0.1,0.3-0.2,0.5
			C308.3,97.6,308.1,97.7,307.9,97.7z"/>
		<path class="st4" d="M325.7,97.7h-0.5c-0.2,0-0.4-0.1-0.5-0.2c-0.1-0.1-0.2-0.3-0.3-0.5l-1.6-4.9h-7.5l-1.7,5
			c-0.2,0.4-0.4,0.6-0.7,0.6h-0.4c-0.2,0-0.4-0.1-0.5-0.3c-0.1-0.2-0.1-0.4-0.1-0.6l6-19.3l0.2-0.3c0,0,0.1-0.1,0.1-0.1
			c0,0,0,0,0.1-0.1c0.1-0.2,0.3-0.3,0.5-0.3h0.7c0.3,0,0.6,0.2,0.8,0.6l6,19.4c0.1,0.2,0,0.4-0.1,0.6S325.9,97.7,325.7,97.7z
			 M319.2,79.6c-0.6,2.1-1.1,4.1-1.6,5.9c-0.5,1.8-1,3.4-1.4,4.6h6.1L319.2,79.6z"/>
	</g>
	<g>
		<g>
			<path class="st4" d="M44.9,34.4C44.6,34.7,44.3,35,44,35L20.7,46.2c-0.8,0.2-1.2,0.3-1.4,0.1c-0.5-0.2-0.7-0.6-0.7-1.3v-0.8
				c0-0.4,0.1-0.7,0.4-1c0.1-0.1,0.2-0.2,0.3-0.4c0.1-0.1,0.2-0.2,0.3-0.3l20.3-9.8L19.5,22.2c-0.6-0.3-1-0.9-1-1.7v-0.7
				c0-0.6,0.2-1.1,0.6-1.3c0.5-0.3,0.9-0.3,1.4-0.1L44,30.7c0.2,0.1,0.5,0.3,0.9,0.6c0.2,0.4,0.4,0.7,0.4,1.1v1
				C45.3,33.8,45.2,34.2,44.9,34.4z"/>
			<path class="st4" d="M67.7,55.6c-0.1,0.2-0.5,0.4-1.1,0.4H48c-0.6,0-0.9-0.1-1.1-0.4c-0.3-0.2-0.4-0.3-0.4-0.4V53l0.4-0.3
				c0.1-0.2,0.4-0.3,1.1-0.3h18.7c0.5,0,0.9,0.1,1.1,0.3l0.4,0.3v2.2C68.1,55.3,68,55.4,67.7,55.6z"/>
		</g>
		<rect x="10.7" y="4.5" class="st13" width="65.2" height="65.2"/>
	</g>
	<rect x="185.8" y="70" class="st14" width="151.2" height="34.5"/>
</g>
</svg>
