<?xml version="1.0" encoding="utf-8"?>
<!-- Generator: Adobe Illustrator 18.0.0, SVG Export Plug-In . SVG Version: 6.00 Build 0)  -->
<!DOCTYPE svg PUBLIC "-//W3C//DTD SVG 1.1//EN" "http://www.w3.org/Graphics/SVG/1.1/DTD/svg11.dtd">
<svg version="1.1" id="Capa_1" xmlns="http://www.w3.org/2000/svg" xmlns:xlink="http://www.w3.org/1999/xlink" x="0px" y="0px"
	 viewBox="0 0 388 80" enable-background="new 0 0 388 80" xml:space="preserve">
<g>
	<g>
		<path fill="#FFFFFF" d="M113,20.8c0-0.2-0.2-0.2-0.2-0.2H112c-0.2,0-0.2,0-0.2,0.2l-16.5,38V59l0.2,0.2h7.5c0.2,0,0.2,0,0.2-0.2
			l1.7-4h14.8l1.8,4c0,0.2,0.2,0.2,0.2,0.2h8.2c0,0,0.2,0,0.2-0.2v-0.3L113,20.8z M108,47.8l2.5-6c0.7-1.8,1.5-4.2,2-5.5
			c0.5,1.5,1.2,3.7,2,5.5l2.5,6H108z"/>
		<path fill="#FFFFFF" d="M167.8,46.5L167.8,46.5c-0.2,0-0.5,0-0.5,0.3c-2.5,3.8-5.2,5.2-9.2,5.2c-6.5,0-11-5-11-12s4.5-12,11-12
			c3.8,0,7,1.8,8.8,4.8L167,33h0.2l6-4.2c0.2,0,0.2-0.2,0-0.5c-3.2-5.3-8.2-8-15.2-8c-11.2,0-19.8,8.5-19.8,19.5
			c0,11.2,8.5,19.8,19.8,19.8c7,0,12.5-3,16-8.5c0-0.2,0-0.5,0-0.5L167.8,46.5z"/>
		<path fill="#FFFFFF" d="M200.8,20.8c0-0.2-0.2-0.2-0.2-0.2h-0.8c-0.2,0-0.2,0-0.2,0.2l-16.5,38V59l0.2,0.2h7.5
			c0.2,0,0.2,0,0.2-0.2l1.8-4h14.8l1.8,4c0,0.2,0.2,0.2,0.2,0.2h8c0.2,0,0.2,0,0.2-0.2v-0.3L200.8,20.8z M204.5,47.8h-8.8l2.5-6
			c0.8-1.8,1.5-4.2,2-5.5c0.5,1.5,1.2,3.7,2,5.5L204.5,47.8z"/>
		<path fill="#FFFFFF" d="M266.8,20.5H266c0,0-0.2,0-0.2,0.2l-13,17.8c-0.8,1.2-1.7,2.8-2.2,3.5c-0.5-0.8-1.5-2.5-2.5-3.5l-13-18
			l-0.2-0.3H234c-0.2,0-0.2,0.3-0.2,0.3l-3,38v0.2h0.2h7.2c0.2,0,0.2-0.2,0.2-0.2l1-13.3c0-1.5,0.2-4,0.2-5.5c0.8,1.2,2,3.2,3,4.8
			l6.8,9l0.2,0.2h0.8c0,0,0.2,0,0.2-0.2l6.7-9c1-1.2,2.2-3.2,3-4.5c0,1.5,0.2,3.8,0.2,5.2l1,13.2c0,0.2,0.2,0.2,0.2,0.2h7.8h0.2
			v-0.2L266.8,20.5C267.3,20.5,267,20.5,266.8,20.5z"/>
		<path fill="#FFFFFF" d="M293.8,20.8H286c-0.2,0-0.2,0.3-0.2,0.3v37.5c0,0.3,0.2,0.3,0.2,0.3h7.8c0.2,0,0.2-0.3,0.2-0.3V21
			C294,21,294,20.8,293.8,20.8z"/>
		<path fill="#FFFFFF" d="M338,46.5h-0.2c0,0-0.3,0-0.3,0.3c-2.5,3.8-5.2,5.2-9.2,5.2c-6.5,0-11-5-11-12s4.5-12,11-12
			c3.8,0,7,1.8,8.8,4.8l0.2,0.2h0.3l6-4.2c0.3,0,0.3-0.2,0-0.5c-3.5-5.2-8.5-7.8-15.2-7.8c-11.2,0-19.8,8.5-19.8,19.5
			c0,11.2,8.5,19.8,19.8,19.8c7,0,12.5-3,16-8.5c0-0.2,0-0.5,0-0.5L338,46.5z"/>
		<path fill="#FFFFFF" d="M388,58.5l-17.2-38c0-0.3-0.3-0.3-0.3-0.3h-0.8c-0.2,0-0.2,0-0.2,0.3l-16.5,38v0.2l0.3,0.3h7.5
			c0.2,0,0.2,0,0.2-0.3l1.8-4h14.7l1.8,4c0,0.3,0.3,0.3,0.3,0.3h8c0.3,0,0.3,0,0.3-0.3C388,58.8,388,58.8,388,58.5z M374.5,47.8
			h-8.8l2.5-6c0.8-1.8,1.5-4.2,2-5.5c0.5,1.5,1.2,3.7,2,5.5L374.5,47.8z"/>
	</g>
	<g>
		<path fill="#FFFFFF" d="M40,7.8c17.8,0,32.2,14.5,32.2,32.2S57.8,72.2,40,72.2S7.8,57.8,7.8,40S22.3,7.8,40,7.8 M40,0
			C18,0,0,18,0,40s18,40,40,40s40-18,40-40S62,0,40,0L40,0z"/>
		<g>
			<circle fill="#FFFFFF" cx="54" cy="40" r="6"/>
			<g>
				<circle fill="#FFFFFF" cx="26" cy="40" r="6"/>
				<path fill="#FFFFFF" d="M40,29L40,29c-0.2,0.2-0.2,0.5-0.5,0.8c-1.2,1.8-2.5,4.2-3,7.7v0.2V38c0,0.2,0,0.5,0,1l0,0
					c0,0.3,0,0.3,0,0.5l0,0l7.5-2l0.5-0.2c1-4.2,5-7.8,9.8-7.8V22C48.3,22.2,43.3,25,40,29z"/>
				<path fill="#FFFFFF" d="M45.8,46c-1,3-2.8,5.5-3.8,7c3.2,3,7.2,4.7,12,4.7v-7.5C50.5,50,47.8,48.5,45.8,46z"/>
				<path fill="#FFFFFF" d="M44,41c0-0.2,0-0.2,0-0.5l0,0l-7.5,2H36c-1.2,4.2-5,7.5-9.8,7.5v7.5c5.8,0,10.8-2.8,13.8-6.8l0,0
					C41.5,49,43.8,45.2,44,41C43.8,41,44,41,44,41z"/>
				<path fill="#FFFFFF" d="M34.5,34.2c1-3.2,2.5-5.8,3.8-7.3c-3.2-3-7.2-4.7-12-4.7v7.5C29.5,30,32.5,31.8,34.5,34.2z"/>
			</g>
			<path fill="#FFFFFF" d="M40,41.5"/>
			<path fill="#FFFFFF" d="M39.5,38.8"/>
		</g>
	</g>
</g>
</svg>
